{
	"asset":{
		"generator":"Khronos glTF Blender I/O v5.1.20",
		"version":"2.0"
	},
	"extensionsUsed":[
		"KHR_lights_punctual"
	],
	"extensionsRequired":[
		"KHR_lights_punctual"
	],
	"extensions":{
		"KHR_lights_punctual":{
			"lights":[
				{
					"color":[
						1,
						1,
						1
					],
					"intensity":79.57747154594767,
					"type":"point",
					"name":"Light"
				}
			]
		}
	},
	"scene":0,
	"scenes":[
		{
			"name":"Scene",
			"nodes":[
				0,
				1,
				2,
				3
			]
		}
	],
	"nodes":[
		{
			"extensions":{
				"KHR_lights_punctual":{
					"light":0
				}
			},
			"name":"Light",
			"rotation":[
				-0.28416627645492554,
				0.7269423007965088,
				0.34203392267227173,
				0.5232754945755005
			],
			"translation":[
				4.076245307922363,
				5.903861999511719,
				-1.0054539442062378
			]
		},
		{
			"camera":0,
			"name":"Camera",
			"rotation":[
				-0.20997299253940582,
				0.3857799470424652,
				0.09062844514846802,
				0.8937962055206299
			],
			"translation":[
				7.358891487121582,
				4.958309173583984,
				6.925790786743164
			]
		},
		{
			"mesh":0,
			"name":"Cabinet Bottom",
			"scale":[
				3,
				0.19999998807907104,
				3
			]
		},
		{
			"mesh":1,
			"name":"Cabinet Top",
			"scale":[
				3.200000047683716,
				0.44099998474121094,
				3.200000047683716
			],
			"translation":[
				0,
				6,
				0
			]
		}
	],
	"cameras":[
		{
			"name":"Camera",
			"perspective":{
				"aspectRatio":1.7777777777777777,
				"yfov":0.39959652046304894,
				"zfar":100,
				"znear":0.10000000149011612
			},
			"type":"perspective"
		}
	],
	"materials":[
		{
			"doubleSided":true,
			"name":"Material.002",
			"pbrMetallicRoughness":{
				"metallicFactor":0,
				"roughnessFactor":0.5
			}
		},
		{
			"doubleSided":true,
			"name":"Wood",
			"pbrMetallicRoughness":{
				"metallicFactor":0,
				"roughnessFactor":0.5
			}
		}
	],
	"meshes":[
		{
			"name":"Cube",
			"primitives":[
				{
					"attributes":{
						"POSITION":0,
						"NORMAL":1,
						"TEXCOORD_0":2,
						"TANGENT":3
					},
					"indices":4,
					"material":0
				}
			]
		},
		{
			"name":"Cube.001",
			"primitives":[
				{
					"attributes":{
						"POSITION":5,
						"NORMAL":6,
						"TEXCOORD_0":7,
						"TANGENT":8
					},
					"indices":9,
					"material":1
				}
			]
		}
	],
	"accessors":[
		{
			"bufferView":0,
			"componentType":5126,
			"count":184,
			"max":[
				1,
				31,
				1
			],
			"min":[
				-1,
				-6,
				-1
			],
			"type":"VEC3"
		},
		{
			"bufferView":1,
			"componentType":5126,
			"count":184,
			"type":"VEC3"
		},
		{
			"bufferView":2,
			"componentType":5126,
			"count":184,
			"type":"VEC2"
		},
		{
			"bufferView":3,
			"componentType":5126,
			"count":184,
			"type":"VEC4"
		},
		{
			"bufferView":4,
			"componentType":5123,
			"count":372,
			"type":"SCALAR"
		},
		{
			"bufferView":5,
			"componentType":5126,
			"count":125,
			"max":[
				1,
				1,
				1
			],
			"min":[
				-1,
				-4.401360511779785,
				-1
			],
			"type":"VEC3"
		},
		{
			"bufferView":6,
			"componentType":5126,
			"count":125,
			"type":"VEC3"
		},
		{
			"bufferView":7,
			"componentType":5126,
			"count":125,
			"type":"VEC2"
		},
		{
			"bufferView":8,
			"componentType":5126,
			"count":125,
			"type":"VEC4"
		},
		{
			"bufferView":9,
			"componentType":5123,
			"count":180,
			"type":"SCALAR"
		}
	],
	"bufferViews":[
		{
			"buffer":0,
			"byteLength":2208,
			"byteOffset":0,
			"target":34962
		},
		{
			"buffer":0,
			"byteLength":2208,
			"byteOffset":2208,
			"target":34962
		},
		{
			"buffer":0,
			"byteLength":1472,
			"byteOffset":4416,
			"target":34962
		},
		{
			"buffer":0,
			"byteLength":2944,
			"byteOffset":5888,
			"target":34962
		},
		{
			"buffer":0,
			"byteLength":744,
			"byteOffset":8832,
			"target":34963
		},
		{
			"buffer":0,
			"byteLength":1500,
			"byteOffset":9576,
			"target":34962
		},
		{
			"buffer":0,
			"byteLength":1500,
			"byteOffset":11076,
			"target":34962
		},
		{
			"buffer":0,
			"byteLength":1000,
			"byteOffset":12576,
			"target":34962
		},
		{
			"buffer":0,
			"byteLength":2000,
			"byteOffset":13576,
			"target":34962
		},
		{
			"buffer":0,
			"byteLength":360,
			"byteOffset":15576,
			"target":34963
		}
	],
	"buffers":[
		{
			"byteLength":15936,
			"uri":"Cabinet-a89c65a5efe44a3f31a82c1221913e8f.bin"
		}
	]
}
