{
	"asset":{
		"generator":"Khronos glTF Blender I/O v5.1.20",
		"version":"2.0"
	},
	"scene":0,
	"scenes":[
		{
			"name":"Scene",
			"nodes":[
				0,
				1,
				2,
				3,
				4,
				5
			]
		}
	],
	"nodes":[
		{
			"name":"Empty",
			"rotation":[
				0.70710688829422,
				0,
				0,
				0.7071066498756409
			],
			"translation":[
				0,
				0.016330838203430176,
				0
			]
		},
		{
			"mesh":0,
			"name":"Cylinder"
		},
		{
			"mesh":1,
			"name":"Mauser",
			"scale":[
				0.6597680449485779,
				0.6597680449485779,
				0.6597680449485779
			],
			"translation":[
				0,
				0,
				7.139578819274902
			]
		},
		{
			"mesh":2,
			"name":"MauserClip",
			"rotation":[
				0,
				0,
				0.0014446449931710958,
				1
			],
			"scale":[
				0.2627831995487213,
				0.2627831995487213,
				0.2627831697463989
			],
			"translation":[
				-0.09072677046060562,
				-0.0680449977517128,
				7.137413024902344
			]
		},
		{
			"mesh":3,
			"name":"grenadeLauncher",
			"translation":[
				0,
				0,
				3.4621362686157227
			]
		},
		{
			"mesh":4,
			"name":"Bazooka",
			"translation":[
				0,
				0,
				11.21261978149414
			]
		}
	],
	"materials":[
		{
			"doubleSided":true,
			"name":"Material.001",
			"pbrMetallicRoughness":{
				"metallicFactor":0,
				"roughnessFactor":0.5
			}
		},
		{
			"doubleSided":true,
			"name":"Material",
			"pbrMetallicRoughness":{
				"metallicFactor":0,
				"roughnessFactor":0.4000000059604645
			}
		},
		{
			"doubleSided":true,
			"name":"Material.002",
			"pbrMetallicRoughness":{
				"metallicFactor":0,
				"roughnessFactor":0.4000000059604645
			}
		},
		{
			"doubleSided":true,
			"name":"Material.003",
			"pbrMetallicRoughness":{
				"metallicFactor":0,
				"roughnessFactor":0.4000000059604645
			}
		},
		{
			"doubleSided":true,
			"name":"Material.004",
			"pbrMetallicRoughness":{
				"metallicFactor":0,
				"roughnessFactor":0.4000000059604645
			}
		}
	],
	"meshes":[
		{
			"name":"Cylinder",
			"primitives":[
				{
					"attributes":{
						"POSITION":0,
						"NORMAL":1,
						"TEXCOORD_0":2
					},
					"indices":3,
					"material":0
				}
			]
		},
		{
			"name":"Cube",
			"primitives":[
				{
					"attributes":{
						"POSITION":4,
						"NORMAL":5,
						"TEXCOORD_0":6,
						"TANGENT":7
					},
					"indices":8,
					"material":1
				}
			]
		},
		{
			"name":"Cube.001",
			"primitives":[
				{
					"attributes":{
						"POSITION":9,
						"NORMAL":10,
						"TEXCOORD_0":11,
						"TANGENT":12
					},
					"indices":13,
					"material":2
				}
			]
		},
		{
			"name":"Cube.002",
			"primitives":[
				{
					"attributes":{
						"POSITION":14,
						"NORMAL":15,
						"TEXCOORD_0":16
					},
					"indices":17,
					"material":3
				}
			]
		},
		{
			"name":"Cube.003",
			"primitives":[
				{
					"attributes":{
						"POSITION":18,
						"NORMAL":19,
						"TEXCOORD_0":20
					},
					"indices":21,
					"material":4
				}
			]
		}
	],
	"accessors":[
		{
			"bufferView":0,
			"componentType":5126,
			"count":647,
			"max":[
				2.3737363815307617,
				0.6654825806617737,
				0.2741125226020813
			],
			"min":[
				-2.3969638347625732,
				-0.5192393064498901,
				-0.2741125226020813
			],
			"type":"VEC3"
		},
		{
			"bufferView":1,
			"componentType":5126,
			"count":647,
			"type":"VEC3"
		},
		{
			"bufferView":2,
			"componentType":5126,
			"count":647,
			"type":"VEC2"
		},
		{
			"bufferView":3,
			"componentType":5123,
			"count":1128,
			"type":"SCALAR"
		},
		{
			"bufferView":4,
			"componentType":5126,
			"count":476,
			"max":[
				3.342092752456665,
				2.343367099761963,
				0.4288729429244995
			],
			"min":[
				-4.96496057510376,
				-1.8081393241882324,
				-0.4288729429244995
			],
			"type":"VEC3"
		},
		{
			"bufferView":5,
			"componentType":5126,
			"count":476,
			"type":"VEC3"
		},
		{
			"bufferView":6,
			"componentType":5126,
			"count":476,
			"type":"VEC2"
		},
		{
			"bufferView":7,
			"componentType":5126,
			"count":476,
			"type":"VEC4"
		},
		{
			"bufferView":8,
			"componentType":5123,
			"count":792,
			"type":"SCALAR"
		},
		{
			"bufferView":9,
			"componentType":5126,
			"count":48,
			"max":[
				1.0009756088256836,
				2.4072041511535645,
				0.8578377962112427
			],
			"min":[
				-1.0015816688537598,
				-6.3499369621276855,
				-0.8578377962112427
			],
			"type":"VEC3"
		},
		{
			"bufferView":10,
			"componentType":5126,
			"count":48,
			"type":"VEC3"
		},
		{
			"bufferView":11,
			"componentType":5126,
			"count":48,
			"type":"VEC2"
		},
		{
			"bufferView":12,
			"componentType":5126,
			"count":48,
			"type":"VEC4"
		},
		{
			"bufferView":13,
			"componentType":5123,
			"count":84,
			"type":"SCALAR"
		},
		{
			"bufferView":14,
			"componentType":5126,
			"count":1479,
			"max":[
				1.8191486597061157,
				1.158798336982727,
				1
			],
			"min":[
				-5.787402153015137,
				-1.406541109085083,
				-1
			],
			"type":"VEC3"
		},
		{
			"bufferView":15,
			"componentType":5126,
			"count":1479,
			"type":"VEC3"
		},
		{
			"bufferView":16,
			"componentType":5126,
			"count":1479,
			"type":"VEC2"
		},
		{
			"bufferView":17,
			"componentType":5123,
			"count":2928,
			"type":"SCALAR"
		},
		{
			"bufferView":18,
			"componentType":5126,
			"count":724,
			"max":[
				5.576825141906738,
				1.4429482221603394,
				0.6556797623634338
			],
			"min":[
				-6.086775779724121,
				-1.4534181356430054,
				-0.6556797623634338
			],
			"type":"VEC3"
		},
		{
			"bufferView":19,
			"componentType":5126,
			"count":724,
			"type":"VEC3"
		},
		{
			"bufferView":20,
			"componentType":5126,
			"count":724,
			"type":"VEC2"
		},
		{
			"bufferView":21,
			"componentType":5123,
			"count":1320,
			"type":"SCALAR"
		}
	],
	"bufferViews":[
		{
			"buffer":0,
			"byteLength":7764,
			"byteOffset":0,
			"target":34962
		},
		{
			"buffer":0,
			"byteLength":7764,
			"byteOffset":7764,
			"target":34962
		},
		{
			"buffer":0,
			"byteLength":5176,
			"byteOffset":15528,
			"target":34962
		},
		{
			"buffer":0,
			"byteLength":2256,
			"byteOffset":20704,
			"target":34963
		},
		{
			"buffer":0,
			"byteLength":5712,
			"byteOffset":22960,
			"target":34962
		},
		{
			"buffer":0,
			"byteLength":5712,
			"byteOffset":28672,
			"target":34962
		},
		{
			"buffer":0,
			"byteLength":3808,
			"byteOffset":34384,
			"target":34962
		},
		{
			"buffer":0,
			"byteLength":7616,
			"byteOffset":38192,
			"target":34962
		},
		{
			"buffer":0,
			"byteLength":1584,
			"byteOffset":45808,
			"target":34963
		},
		{
			"buffer":0,
			"byteLength":576,
			"byteOffset":47392,
			"target":34962
		},
		{
			"buffer":0,
			"byteLength":576,
			"byteOffset":47968,
			"target":34962
		},
		{
			"buffer":0,
			"byteLength":384,
			"byteOffset":48544,
			"target":34962
		},
		{
			"buffer":0,
			"byteLength":768,
			"byteOffset":48928,
			"target":34962
		},
		{
			"buffer":0,
			"byteLength":168,
			"byteOffset":49696,
			"target":34963
		},
		{
			"buffer":0,
			"byteLength":17748,
			"byteOffset":49864,
			"target":34962
		},
		{
			"buffer":0,
			"byteLength":17748,
			"byteOffset":67612,
			"target":34962
		},
		{
			"buffer":0,
			"byteLength":11832,
			"byteOffset":85360,
			"target":34962
		},
		{
			"buffer":0,
			"byteLength":5856,
			"byteOffset":97192,
			"target":34963
		},
		{
			"buffer":0,
			"byteLength":8688,
			"byteOffset":103048,
			"target":34962
		},
		{
			"buffer":0,
			"byteLength":8688,
			"byteOffset":111736,
			"target":34962
		},
		{
			"buffer":0,
			"byteLength":5792,
			"byteOffset":120424,
			"target":34962
		},
		{
			"buffer":0,
			"byteLength":2640,
			"byteOffset":126216,
			"target":34963
		}
	],
	"buffers":[
		{
			"byteLength":128856,
			"uri":"weaponPack-7a9d8c88543e5e35b75366a835b42248.bin"
		}
	]
}
